<mxfile host="Electron" modified="2023-07-25T21:37:52.969Z" agent="Mozilla/5.0 (Macintosh; Intel Mac OS X 10_15_7) AppleWebKit/537.36 (KHTML, like Gecko) draw.io/21.6.5 Chrome/114.0.5735.243 Electron/25.3.1 Safari/537.36" etag="lBp2K4nSRz5ByWD1Kqau" version="21.6.5" type="device">
  <diagram name="Page-1" id="DGU54aM1dXb16u6cR6Np">
    <mxGraphModel dx="984" dy="718" grid="1" gridSize="10" guides="1" tooltips="1" connect="1" arrows="1" fold="1" page="1" pageScale="1" pageWidth="827" pageHeight="1169" background="none" math="0" shadow="0">
      <root>
        <mxCell id="0" />
        <mxCell id="1" parent="0" />
        <mxCell id="peu6tdp3pK0AbRxB3ZtT-21" value="" style="rounded=0;whiteSpace=wrap;html=1;" vertex="1" parent="1">
          <mxGeometry x="15" y="120" width="875" height="410" as="geometry" />
        </mxCell>
        <mxCell id="peu6tdp3pK0AbRxB3ZtT-4" value="AWS Cloud" style="points=[[0,0],[0.25,0],[0.5,0],[0.75,0],[1,0],[1,0.25],[1,0.5],[1,0.75],[1,1],[0.75,1],[0.5,1],[0.25,1],[0,1],[0,0.75],[0,0.5],[0,0.25]];outlineConnect=0;gradientColor=none;html=1;whiteSpace=wrap;fontSize=12;fontStyle=0;container=1;pointerEvents=0;collapsible=0;recursiveResize=0;shape=mxgraph.aws4.group;grIcon=mxgraph.aws4.group_aws_cloud;strokeColor=#232F3E;fillColor=none;verticalAlign=top;align=left;spacingLeft=30;fontColor=#232F3E;dashed=0;" vertex="1" parent="1">
          <mxGeometry x="220" y="150" width="450" height="340" as="geometry" />
        </mxCell>
        <mxCell id="peu6tdp3pK0AbRxB3ZtT-13" style="edgeStyle=orthogonalEdgeStyle;rounded=0;orthogonalLoop=1;jettySize=auto;html=1;exitX=0.75;exitY=1;exitDx=0;exitDy=0;exitPerimeter=0;entryX=0.75;entryY=0;entryDx=0;entryDy=0;entryPerimeter=0;" edge="1" parent="peu6tdp3pK0AbRxB3ZtT-4" source="peu6tdp3pK0AbRxB3ZtT-5" target="peu6tdp3pK0AbRxB3ZtT-7">
          <mxGeometry relative="1" as="geometry" />
        </mxCell>
        <mxCell id="peu6tdp3pK0AbRxB3ZtT-17" style="edgeStyle=orthogonalEdgeStyle;rounded=0;orthogonalLoop=1;jettySize=auto;html=1;exitX=0;exitY=0.75;exitDx=0;exitDy=0;exitPerimeter=0;entryX=1;entryY=0.75;entryDx=0;entryDy=0;entryPerimeter=0;" edge="1" parent="peu6tdp3pK0AbRxB3ZtT-4" source="peu6tdp3pK0AbRxB3ZtT-5" target="peu6tdp3pK0AbRxB3ZtT-8">
          <mxGeometry relative="1" as="geometry" />
        </mxCell>
        <mxCell id="peu6tdp3pK0AbRxB3ZtT-5" value="" style="sketch=0;points=[[0,0,0],[0.25,0,0],[0.5,0,0],[0.75,0,0],[1,0,0],[0,1,0],[0.25,1,0],[0.5,1,0],[0.75,1,0],[1,1,0],[0,0.25,0],[0,0.5,0],[0,0.75,0],[1,0.25,0],[1,0.5,0],[1,0.75,0]];outlineConnect=0;fontColor=#232F3E;gradientColor=#F78E04;gradientDirection=north;fillColor=#D05C17;strokeColor=#ffffff;dashed=0;verticalLabelPosition=bottom;verticalAlign=top;align=center;html=1;fontSize=12;fontStyle=0;aspect=fixed;shape=mxgraph.aws4.resourceIcon;resIcon=mxgraph.aws4.lambda;" vertex="1" parent="peu6tdp3pK0AbRxB3ZtT-4">
          <mxGeometry x="308" y="76" width="78" height="78" as="geometry" />
        </mxCell>
        <mxCell id="peu6tdp3pK0AbRxB3ZtT-14" style="edgeStyle=orthogonalEdgeStyle;rounded=0;orthogonalLoop=1;jettySize=auto;html=1;exitX=0.25;exitY=0;exitDx=0;exitDy=0;exitPerimeter=0;entryX=0.25;entryY=1;entryDx=0;entryDy=0;entryPerimeter=0;" edge="1" parent="peu6tdp3pK0AbRxB3ZtT-4" source="peu6tdp3pK0AbRxB3ZtT-7" target="peu6tdp3pK0AbRxB3ZtT-5">
          <mxGeometry relative="1" as="geometry" />
        </mxCell>
        <mxCell id="peu6tdp3pK0AbRxB3ZtT-7" value="Secrets Manager&lt;br&gt;(store OpenAI API key)" style="sketch=0;points=[[0,0,0],[0.25,0,0],[0.5,0,0],[0.75,0,0],[1,0,0],[0,1,0],[0.25,1,0],[0.5,1,0],[0.75,1,0],[1,1,0],[0,0.25,0],[0,0.5,0],[0,0.75,0],[1,0.25,0],[1,0.5,0],[1,0.75,0]];outlineConnect=0;fontColor=#232F3E;gradientColor=#F54749;gradientDirection=north;fillColor=#C7131F;strokeColor=#ffffff;dashed=0;verticalLabelPosition=bottom;verticalAlign=top;align=center;html=1;fontSize=12;fontStyle=0;aspect=fixed;shape=mxgraph.aws4.resourceIcon;resIcon=mxgraph.aws4.secrets_manager;" vertex="1" parent="peu6tdp3pK0AbRxB3ZtT-4">
          <mxGeometry x="308" y="210" width="78" height="78" as="geometry" />
        </mxCell>
        <mxCell id="peu6tdp3pK0AbRxB3ZtT-16" style="edgeStyle=orthogonalEdgeStyle;rounded=0;orthogonalLoop=1;jettySize=auto;html=1;exitX=1;exitY=0.25;exitDx=0;exitDy=0;exitPerimeter=0;entryX=0;entryY=0.25;entryDx=0;entryDy=0;entryPerimeter=0;" edge="1" parent="peu6tdp3pK0AbRxB3ZtT-4" source="peu6tdp3pK0AbRxB3ZtT-8" target="peu6tdp3pK0AbRxB3ZtT-5">
          <mxGeometry relative="1" as="geometry" />
        </mxCell>
        <mxCell id="peu6tdp3pK0AbRxB3ZtT-8" value="API Gateway&lt;br&gt;(needs x-api-key)" style="sketch=0;points=[[0,0,0],[0.25,0,0],[0.5,0,0],[0.75,0,0],[1,0,0],[0,1,0],[0.25,1,0],[0.5,1,0],[0.75,1,0],[1,1,0],[0,0.25,0],[0,0.5,0],[0,0.75,0],[1,0.25,0],[1,0.5,0],[1,0.75,0]];outlineConnect=0;fontColor=#232F3E;gradientColor=#945DF2;gradientDirection=north;fillColor=#5A30B5;strokeColor=#ffffff;dashed=0;verticalLabelPosition=bottom;verticalAlign=top;align=center;html=1;fontSize=12;fontStyle=0;aspect=fixed;shape=mxgraph.aws4.resourceIcon;resIcon=mxgraph.aws4.api_gateway;" vertex="1" parent="peu6tdp3pK0AbRxB3ZtT-4">
          <mxGeometry x="70" y="76" width="78" height="78" as="geometry" />
        </mxCell>
        <mxCell id="peu6tdp3pK0AbRxB3ZtT-11" style="edgeStyle=orthogonalEdgeStyle;rounded=0;orthogonalLoop=1;jettySize=auto;html=1;exitX=0.98;exitY=0.51;exitDx=0;exitDy=0;exitPerimeter=0;entryX=0;entryY=0.5;entryDx=0;entryDy=0;entryPerimeter=0;" edge="1" parent="1" source="peu6tdp3pK0AbRxB3ZtT-9" target="peu6tdp3pK0AbRxB3ZtT-8">
          <mxGeometry relative="1" as="geometry" />
        </mxCell>
        <mxCell id="peu6tdp3pK0AbRxB3ZtT-9" value="User" style="points=[[0.35,0,0],[0.98,0.51,0],[1,0.71,0],[0.67,1,0],[0,0.795,0],[0,0.65,0]];verticalLabelPosition=bottom;sketch=0;html=1;verticalAlign=top;aspect=fixed;align=center;pointerEvents=1;shape=mxgraph.cisco19.user;fillColor=#005073;strokeColor=none;" vertex="1" parent="1">
          <mxGeometry x="40" y="230" width="70" height="70" as="geometry" />
        </mxCell>
        <mxCell id="peu6tdp3pK0AbRxB3ZtT-19" style="edgeStyle=orthogonalEdgeStyle;rounded=0;orthogonalLoop=1;jettySize=auto;html=1;exitX=0;exitY=0.75;exitDx=0;exitDy=0;entryX=1;entryY=0.75;entryDx=0;entryDy=0;entryPerimeter=0;" edge="1" parent="1" source="peu6tdp3pK0AbRxB3ZtT-10" target="peu6tdp3pK0AbRxB3ZtT-5">
          <mxGeometry relative="1" as="geometry" />
        </mxCell>
        <mxCell id="peu6tdp3pK0AbRxB3ZtT-10" value="OpenAI API" style="shape=image;verticalLabelPosition=bottom;labelBackgroundColor=default;verticalAlign=top;aspect=fixed;imageAspect=0;image=https://static.vecteezy.com/system/resources/previews/021/059/827/original/chatgpt-logo-chat-gpt-icon-on-white-background-free-vector.jpg;" vertex="1" parent="1">
          <mxGeometry x="780" y="227" width="77" height="77" as="geometry" />
        </mxCell>
        <mxCell id="peu6tdp3pK0AbRxB3ZtT-18" style="edgeStyle=orthogonalEdgeStyle;rounded=0;orthogonalLoop=1;jettySize=auto;html=1;exitX=1;exitY=0.25;exitDx=0;exitDy=0;exitPerimeter=0;entryX=0;entryY=0.25;entryDx=0;entryDy=0;" edge="1" parent="1" source="peu6tdp3pK0AbRxB3ZtT-5" target="peu6tdp3pK0AbRxB3ZtT-10">
          <mxGeometry relative="1" as="geometry" />
        </mxCell>
      </root>
    </mxGraphModel>
  </diagram>
</mxfile>
